<svg width="861" height="338" viewBox="0 0 861 338" fill="none" xmlns="http://www.w3.org/2000/svg">
<path d="M303.748 149.204C192.873 127.367 127.625 170.586 74.6966 196.063C32.1586 216.538 -47.6957 247.803 38.1946 288.871C160.933 347.559 305.574 328.603 386.335 312.073C475.309 376.22 608.998 303.884 615.386 281.592C508.161 304.794 500.404 262.788 515.462 255.206C590.747 196.973 660.558 175.59 713.486 167.857C809.999 153.754 837.746 171.193 849.913 167.857C854.628 168.918 861.229 166.31 849.913 149.204C835.769 127.821 802.917 120.088 796.072 113.718C789.228 107.349 844.438 123.727 814.78 86.4217C791.053 56.5774 825.258 54.1207 861 20C729 20 663.296 69.1339 635.919 100.07C610.801 128.453 573.865 158.758 543.751 167.857C513.883 176.881 464.358 167.857 464.358 167.857C464.358 167.857 509.682 112.202 543.751 100.07C430.229 85.1477 336.448 126.608 303.748 149.204Z" fill="#A69C94"/>
<path d="M206.376 222.768V237.264H207.688V222.768H206.376ZM203.256 228.048V229.136H206.76V228.048H203.256ZM199.464 224.848V227.008C199.464 229.584 197.752 232.32 195.672 233.344L196.456 234.4C198.744 233.216 200.536 230.128 200.536 227.008V224.848H199.464ZM199.736 224.848V227.008C199.736 229.984 201.496 232.96 203.784 234.096L204.568 233.056C202.472 232.064 200.792 229.424 200.792 227.008V224.848H199.736ZM196.2 224.256V225.36H204.072V224.256H196.2ZM210.503 229.504V230.512H223.623V229.504H210.503ZM212.055 231.68V232.624H220.679V233.856H212.103V236.464H213.415V234.768H221.975V231.68H212.055ZM212.103 236.112V237.072H222.439V236.112H212.103ZM212.167 223.2V224.144H220.631V225.312H212.199V227.776H213.511V226.208H221.927V223.2H212.167ZM212.199 227.456V228.416H222.199V227.456H212.199ZM240.266 222.784V237.248H241.594V222.784H240.266ZM236.026 224.336V224.56C236.026 228.4 234.09 231.472 229.914 233.488L230.618 234.56C235.45 232.192 237.338 228.528 237.338 224.336H236.026ZM230.57 224.336V225.424H236.602V224.336H230.57ZM255.448 222.784V237.248H256.728V222.784H255.448ZM253 228.576V229.68H255.784V228.576H253ZM252.168 223.104V236.512H253.416V223.104H252.168ZM244.968 232.576V233.68H245.912C248.088 233.68 249.544 233.616 251.272 233.248L251.144 232.144C249.464 232.496 248.024 232.576 245.912 232.576H244.968ZM244.968 224.544V233.072H246.28V225.632H250.344V224.544H244.968ZM268.967 222.784V237.248H270.295V222.784H268.967ZM269.975 228.72V229.84H272.663V228.72H269.975ZM259.095 225.088V226.176H267.623V225.088H259.095ZM263.415 227.376C261.383 227.376 259.895 228.752 259.895 230.704C259.895 232.656 261.383 234.032 263.415 234.032C265.463 234.032 266.935 232.656 266.935 230.704C266.935 228.752 265.463 227.376 263.415 227.376ZM263.415 228.48C264.727 228.48 265.671 229.392 265.671 230.704C265.671 232 264.727 232.928 263.415 232.928C262.103 232.928 261.159 232 261.159 230.704C261.159 229.392 262.103 228.48 263.415 228.48ZM262.727 222.96V225.584H264.055V222.96H262.727ZM284.454 222.768V237.264H285.798V222.768H284.454ZM281.334 225.92V227.024H285.174V225.92H281.334ZM281.334 229.52V230.64H285.174V229.52H281.334ZM277.622 224.032V226.608C277.622 229.296 275.99 232.08 273.862 233.136L274.71 234.192C276.998 232.96 278.694 229.856 278.694 226.608V224.032H277.622ZM277.878 224.032V226.608C277.878 229.792 279.558 232.784 281.878 233.984L282.678 232.912C280.582 231.92 278.95 229.264 278.95 226.608V224.032H277.878ZM292.453 223.888C290.325 223.888 288.821 225.856 288.821 228.928C288.821 232.016 290.325 233.984 292.453 233.984C294.581 233.984 296.085 232.016 296.085 228.928C296.085 225.856 294.581 223.888 292.453 223.888ZM292.453 225.088C293.845 225.088 294.821 226.592 294.821 228.928C294.821 231.28 293.845 232.816 292.453 232.816C291.045 232.816 290.085 231.28 290.085 228.928C290.085 226.592 291.045 225.088 292.453 225.088ZM299.365 226.416V227.536H302.021V226.416H299.365ZM299.365 230.72V231.84H302.021V230.72H299.365ZM298.389 222.784V237.248H299.733V222.784H298.389ZM313.123 222.784V237.248H314.451V222.784H313.123ZM314.131 228.72V229.84H316.819V228.72H314.131ZM303.251 225.088V226.176H311.779V225.088H303.251ZM307.571 227.376C305.539 227.376 304.051 228.752 304.051 230.704C304.051 232.656 305.539 234.032 307.571 234.032C309.619 234.032 311.091 232.656 311.091 230.704C311.091 228.752 309.619 227.376 307.571 227.376ZM307.571 228.48C308.883 228.48 309.827 229.392 309.827 230.704C309.827 232 308.883 232.928 307.571 232.928C306.259 232.928 305.315 232 305.315 230.704C305.315 229.392 306.259 228.48 307.571 228.48ZM306.883 222.96V225.584H308.211V222.96H306.883ZM319.81 227.12V228.208H329.634V227.12H319.81ZM318.034 230.144V231.232H331.154V230.144H318.034ZM319.81 223.312V227.664H321.122V223.312H319.81ZM319.714 235.808V236.896H329.714V235.808H319.714ZM319.714 232.672V236.096H321.026V232.672H319.714ZM347.765 222.768V237.264H349.093V222.768H347.765ZM341.461 223.888C339.333 223.888 337.797 225.856 337.797 228.928C337.797 232.016 339.333 233.984 341.461 233.984C343.605 233.984 345.141 232.016 345.141 228.928C345.141 225.856 343.605 223.888 341.461 223.888ZM341.461 225.088C342.885 225.088 343.861 226.592 343.861 228.928C343.861 231.28 342.885 232.816 341.461 232.816C340.053 232.816 339.061 231.28 339.061 228.928C339.061 226.592 340.053 225.088 341.461 225.088ZM355.332 231.728V237.248H356.692V231.728H355.332ZM360.308 231.728V237.248H361.668V231.728H360.308ZM351.972 231.008V232.112H365.092V231.008H351.972ZM358.5 223.36C355.492 223.36 353.444 224.576 353.444 226.512C353.444 228.432 355.492 229.664 358.5 229.664C361.524 229.664 363.556 228.432 363.556 226.512C363.556 224.576 361.524 223.36 358.5 223.36ZM358.5 224.432C360.708 224.432 362.196 225.248 362.196 226.512C362.196 227.776 360.708 228.592 358.5 228.592C356.292 228.592 354.788 227.776 354.788 226.512C354.788 225.248 356.292 224.432 358.5 224.432Z" fill="black"/>
<path d="M586.25 46.875L584.312 51.6875L574.406 71.8438L569.281 72.1562L559.375 51.375L557.75 46.875V78.875L563.844 80.1562V84H546.562V80.1562L552 78.875V44.3125L546.562 43.0312V39.5312L560.969 39.1875L572.531 64.8125L584.625 39.5312L598.094 39.1875V43.0312L592.625 44.3125V78.875L598.094 80.1562V84H580.156V80.1562L586.25 78.875V46.875ZM609.906 68C609.906 71.5 610.76 74.3021 612.469 76.4062C614.177 78.4896 616.417 79.5312 619.188 79.5312C621.062 79.5312 622.802 79.2708 624.406 78.75C626.01 78.2292 627.333 77.6667 628.375 77.0625C629.417 76.4375 629.938 76.0833 629.938 76L632.188 79.3125C632.188 79.3958 631.49 79.9167 630.094 80.875C628.719 81.8125 627.01 82.6771 624.969 83.4688C622.948 84.2396 620.802 84.625 618.531 84.625C613.49 84.625 609.667 83.1042 607.062 80.0625C604.479 77.0208 603.188 72.7917 603.188 67.375C603.188 64 603.844 60.9479 605.156 58.2188C606.49 55.4896 608.344 53.3438 610.719 51.7812C613.115 50.2188 615.833 49.4375 618.875 49.4375C627.833 49.4375 632.312 54.4479 632.312 64.4688C632.312 65.1562 632.271 65.8438 632.188 66.5312C632.104 67.2188 632.042 67.6667 632 67.875L609.906 68ZM625.531 63.1875C625.531 60.5833 624.969 58.4792 623.844 56.875C622.74 55.25 620.969 54.4375 618.531 54.4375C616.052 54.4375 614.083 55.2708 612.625 56.9375C611.188 58.6042 610.365 60.6875 610.156 63.1875H625.531Z" fill="black"/>
</svg>
