<svg width="864" height="320" viewBox="0 0 864 320" fill="none" xmlns="http://www.w3.org/2000/svg">
<path d="M304.748 130.204C193.873 108.367 128.625 151.586 75.6966 177.063C33.1586 197.538 -46.6957 228.803 39.1946 269.871C161.933 328.559 306.574 309.603 387.335 293.073C476.309 357.22 609.998 284.884 616.386 262.592C509.161 285.794 501.404 243.788 516.462 236.206C591.747 177.973 661.558 156.59 714.486 148.857C810.999 134.754 838.746 152.193 850.913 148.857C855.628 149.918 862.229 147.31 850.913 130.204C836.769 108.821 803.917 101.088 797.072 94.7183C790.228 88.3491 845.438 104.727 815.78 67.4217C792.053 37.5774 826.258 35.1207 862 1C730 1 664.296 50.1339 636.919 81.0699C611.801 109.453 574.865 139.758 544.751 148.857C514.883 157.881 465.358 148.857 465.358 148.857C465.358 148.857 510.682 93.2017 544.751 81.0699C431.229 66.1477 337.448 107.608 304.748 130.204Z" fill="#A69C94" stroke="black"/>
</svg>
