<svg width="563" height="221" viewBox="0 0 563 221" fill="none" xmlns="http://www.w3.org/2000/svg">
<path d="M81.0458 10.5319C-26.7163 -23.9519 -3.99762 34.2382 19.9388 70.2579C43.1388 118.039 110.736 150.928 138.01 164.508C169.495 205.384 212.121 213.646 225.355 211.805C198.288 190.815 196.7 170.031 196.7 170.031C196.7 170.031 288.533 155.877 347.914 155.877C412.312 155.877 481.866 229.003 519.497 220.091C529.992 217.605 508.91 210.769 510.175 204.555C513.283 195.349 518.461 178.8 514.318 186.258C510.175 193.715 503.156 189.365 500.164 186.258C477.792 145.658 546.54 139.651 562.306 133.091C540.211 122.734 534.14 116.471 463.914 125.151C433.188 128.948 414.545 137.579 373.462 133.091C332.037 128.566 260.914 100.639 260.914 100.639C260.914 100.639 294.057 84.0674 322.712 84.0674C253.664 35.389 223.053 54.4921 201.879 54.7223C180.474 44.0199 141.462 29.8652 81.0458 10.5319Z" fill="#736A5F"/>
<path d="M91.376 92.768V107.264H92.688V92.768H91.376ZM88.256 98.048V99.136H91.76V98.048H88.256ZM84.464 94.848V97.008C84.464 99.584 82.752 102.32 80.672 103.344L81.456 104.4C83.744 103.216 85.536 100.128 85.536 97.008V94.848H84.464ZM84.736 94.848V97.008C84.736 99.984 86.496 102.96 88.784 104.096L89.568 103.056C87.472 102.064 85.792 99.424 85.792 97.008V94.848H84.736ZM81.2 94.256V95.36H89.072V94.256H81.2ZM95.5028 99.504V100.512H108.623V99.504H95.5028ZM97.0548 101.68V102.624H105.679V103.856H97.1028V106.464H98.4148V104.768H106.975V101.68H97.0548ZM97.1028 106.112V107.072H107.439V106.112H97.1028ZM97.1668 93.2V94.144H105.631V95.312H97.1988V97.776H98.5108V96.208H106.927V93.2H97.1668ZM97.1988 97.456V98.416H107.199V97.456H97.1988ZM125.65 92.784V101.936H126.914V92.784H125.65ZM123.298 96.704V97.808H126.034V96.704H123.298ZM122.562 93.072V101.424H123.81V93.072H122.562ZM114.658 94.512V95.568H121.986V94.512H114.658ZM118.338 96.304C116.514 96.304 115.25 97.296 115.25 98.784C115.25 100.288 116.514 101.264 118.338 101.264C120.146 101.264 121.41 100.288 121.41 98.784C121.41 97.296 120.146 96.304 118.338 96.304ZM118.338 97.296C119.458 97.296 120.226 97.888 120.226 98.784C120.226 99.696 119.458 100.272 118.338 100.272C117.202 100.272 116.434 99.696 116.434 98.784C116.434 97.888 117.202 97.296 118.338 97.296ZM117.682 92.896V95.104H118.978V92.896H117.682ZM122.178 102.192C119.138 102.192 117.346 103.088 117.346 104.704C117.346 106.304 119.138 107.216 122.178 107.216C125.186 107.216 126.994 106.304 126.994 104.704C126.994 103.088 125.186 102.192 122.178 102.192ZM122.178 103.216C124.37 103.216 125.682 103.744 125.682 104.704C125.682 105.664 124.37 106.208 122.178 106.208C119.954 106.208 118.658 105.664 118.658 104.704C118.658 103.744 119.954 103.216 122.178 103.216ZM129.44 100.24V101.328H142.512V100.24H129.44ZM135.328 98.08V100.576H136.64V98.08H135.328ZM130.896 102.736V103.824H139.568V107.248H140.896V102.736H130.896ZM131.184 93.12V98.528H140.816V93.12H139.488V94.752H132.496V93.12H131.184ZM132.496 95.792H139.488V97.472H132.496V95.792ZM153.967 92.784V107.248H155.295V92.784H153.967ZM154.975 98.72V99.84H157.663V98.72H154.975ZM144.095 95.088V96.176H152.623V95.088H144.095ZM148.415 97.376C146.383 97.376 144.895 98.752 144.895 100.704C144.895 102.656 146.383 104.032 148.415 104.032C150.463 104.032 151.935 102.656 151.935 100.704C151.935 98.752 150.463 97.376 148.415 97.376ZM148.415 98.48C149.727 98.48 150.671 99.392 150.671 100.704C150.671 102 149.727 102.928 148.415 102.928C147.103 102.928 146.159 102 146.159 100.704C146.159 99.392 147.103 98.48 148.415 98.48ZM147.727 92.96V95.584H149.055V92.96H147.727ZM169.902 92.784V107.248H171.182V92.784H169.902ZM163.63 98.688V99.76H167.278V98.688H163.63ZM166.894 93.152V106.512H168.142V93.152H166.894ZM163.806 94.608V94.848C163.806 98.256 162.286 101.136 158.878 103.184L159.662 104.128C163.566 101.808 165.086 98.4 165.086 94.608H163.806ZM159.518 94.608V95.696H164.302V94.608H159.518ZM178.705 94.08V100.784H185.345V94.08H178.705ZM184.049 95.152V99.712H180.001V95.152H184.049ZM188.001 92.768V103.376H189.329V92.768H188.001ZM188.913 97.184V98.288H191.473V97.184H188.913ZM180.321 105.84V106.928H189.985V105.84H180.321ZM180.321 102.368V106.304H181.649V102.368H180.321ZM194.479 99.712V100.8H204.415V99.712H194.479ZM192.831 104.192V105.296H205.935V104.192H192.831ZM194.479 94.112V100.192H195.807V95.216H204.271V94.112H194.479ZM209.31 97.12V98.208H219.134V97.12H209.31ZM207.534 100.144V101.232H220.654V100.144H207.534ZM209.31 93.312V97.664H210.622V93.312H209.31ZM209.214 105.808V106.896H219.214V105.808H209.214ZM209.214 102.672V106.096H210.526V102.672H209.214ZM237.329 92.784V102.576H238.657V92.784H237.329ZM234.225 96.864V97.952H237.601V96.864H234.225ZM232.785 93.92V94.448C232.785 97.28 230.673 99.456 227.009 100.608L227.569 101.664C231.713 100.32 234.177 97.664 234.177 93.92H232.785ZM227.697 93.92V95.008H233.729V93.92H227.697ZM233.329 101.328V101.984C233.329 104.096 231.073 105.696 228.513 106.16L229.041 107.216C231.937 106.624 234.465 104.752 234.465 101.984V101.328H233.329ZM233.521 101.328V101.984C233.521 104.736 236.017 106.608 238.897 107.184L239.457 106.128C236.881 105.664 234.657 104.064 234.657 101.984V101.328H233.521Z" fill="black"/>
</svg>
