<svg width="563" height="221" viewBox="0 0 563 221" fill="none" xmlns="http://www.w3.org/2000/svg">
<path d="M81.0458 10.5319C-26.7163 -23.9519 -3.99762 34.2382 19.9388 70.2579C43.1388 118.039 110.736 150.928 138.01 164.508C169.495 205.384 212.121 213.646 225.355 211.805C198.288 190.815 196.7 170.031 196.7 170.031C196.7 170.031 288.533 155.877 347.914 155.877C412.312 155.877 481.866 229.003 519.497 220.091C529.992 217.605 508.91 210.769 510.175 204.555C513.283 195.349 518.461 178.8 514.318 186.258C510.175 193.715 503.156 189.365 500.164 186.258C477.792 145.658 546.54 139.651 562.306 133.091C540.211 122.734 534.14 116.471 463.914 125.151C433.188 128.948 414.545 137.579 373.462 133.091C332.037 128.566 260.914 100.639 260.914 100.639C260.914 100.639 294.057 84.0674 322.712 84.0674C253.664 35.389 223.053 54.4921 201.879 54.7223C180.474 44.0199 141.462 29.8652 81.0458 10.5319Z" fill="#736A5F"/>
</svg>
