<svg width="108" height="106" viewBox="0 0 108 106" fill="none" xmlns="http://www.w3.org/2000/svg">
<path d="M20.6654 30.5188C20.6654 20.49 37.0626 8.25035 61.2299 13.357C75.7438 16.4238 93.1949 27.8014 94.5679 38.4589C96.2841 51.7808 69.9552 70.9887 62.6454 87.8853C55.3355 104.782 38.8411 99.6859 30.3776 70.5257C19.9717 34.6731 20.6654 37.2108 20.6654 30.5188Z" fill="white" fill-opacity="0.4"/>
<path d="M32.749 41.0635C32.749 40.665 32.8633 40.3545 33.0918 40.1318C33.3203 39.9092 33.5957 39.7979 33.918 39.7979C34.6973 39.7979 35.0869 40.2197 35.0869 41.0635C35.0869 41.4502 34.9668 41.7578 34.7266 41.9863C34.4863 42.209 34.2168 42.3203 33.918 42.3203C33.5605 42.3203 33.2764 42.209 33.0654 41.9863C32.8545 41.7637 32.749 41.4561 32.749 41.0635ZM36.2559 53.5703H31.5801V52.5771L33.1094 52.1289V45.4668L31.5801 45.1064V44.1221L34.9111 44.0342V52.1289L36.2559 52.5771V53.5703ZM40.7383 45.3086C41.1133 44.9863 41.6025 44.6641 42.2061 44.3418C42.8154 44.0137 43.4424 43.8496 44.0869 43.8496C45.0479 43.8496 45.7686 44.1367 46.249 44.7109C46.7295 45.2793 46.9697 46.0732 46.9697 47.0928V52.1289L48.3145 52.5771V53.5703H43.999V52.5771L45.168 52.1289V47.2686C45.168 46.6182 45.042 46.1406 44.79 45.8359C44.5381 45.5312 44.125 45.3789 43.5508 45.3789C43.0938 45.3789 42.6719 45.4873 42.2852 45.7041C41.9043 45.9209 41.585 46.1553 41.3271 46.4072C41.0693 46.6592 40.9404 46.7969 40.9404 46.8203V52.1289L42.1094 52.5771V53.5703H37.6094V52.5771L39.1387 52.1289V45.4668L37.6094 45.1064V44.1221L40.5801 44.0342L40.7383 45.3086ZM55.4336 45.4668H52.8232V51.25C52.8232 51.9824 53.1221 52.3486 53.7197 52.3486C54.1064 52.3486 54.5752 52.1992 55.126 51.9004L55.6094 52.8496C54.7949 53.4473 53.9541 53.7461 53.0869 53.7461C52.4775 53.7461 51.9795 53.5469 51.5928 53.1484C51.2119 52.7441 51.0215 52.0762 51.0215 51.1445V45.4668H49.2197V44.2979L51.0215 44.1221V41.8545L52.8232 41.4941V44.1221H55.4336V45.4668ZM58.5713 49.0703C58.5713 50.0547 58.8115 50.8428 59.292 51.4346C59.7725 52.0205 60.4023 52.3135 61.1816 52.3135C61.709 52.3135 62.1982 52.2402 62.6494 52.0938C63.1006 51.9473 63.4727 51.7891 63.7656 51.6191C64.0586 51.4434 64.2051 51.3438 64.2051 51.3203L64.8379 52.252C64.8379 52.2754 64.6416 52.4219 64.249 52.6914C63.8623 52.9551 63.3818 53.1982 62.8076 53.4209C62.2393 53.6377 61.6357 53.7461 60.9971 53.7461C59.5791 53.7461 58.5039 53.3184 57.7715 52.4629C57.0449 51.6074 56.6816 50.418 56.6816 48.8945C56.6816 47.9453 56.8662 47.0869 57.2354 46.3193C57.6104 45.5518 58.1318 44.9482 58.7998 44.5088C59.4736 44.0693 60.2383 43.8496 61.0938 43.8496C63.6133 43.8496 64.873 45.2588 64.873 48.0771C64.873 48.2705 64.8613 48.4639 64.8379 48.6572C64.8145 48.8506 64.7969 48.9766 64.7852 49.0352L58.5713 49.0703ZM62.9658 47.7168C62.9658 46.9844 62.8076 46.3926 62.4912 45.9414C62.1807 45.4844 61.6826 45.2559 60.9971 45.2559C60.2998 45.2559 59.7461 45.4902 59.3359 45.959C58.9316 46.4277 58.7002 47.0137 58.6416 47.7168H62.9658ZM69.5312 45.3438C69.8711 44.9746 70.2725 44.6348 70.7354 44.3242C71.2041 44.0078 71.7109 43.8496 72.2559 43.8496C72.5195 43.8496 72.7686 43.8701 73.0029 43.9111C73.2432 43.9521 73.4395 43.9961 73.5918 44.043C73.7441 44.084 73.8379 44.1104 73.873 44.1221L73.7852 46.7324H72.6074L72.3438 45.3789C71.7461 45.3789 71.2305 45.5225 70.7969 45.8096C70.3633 46.0967 70.0088 46.4219 69.7334 46.7852V52.1289L71.5352 52.5771V53.5703H66.4023V52.5771L67.9316 52.1289V45.4668L66.4023 45.1064V44.1221L69.373 44.0342L69.5312 45.3438ZM76.6592 49.0703C76.6592 50.0547 76.8994 50.8428 77.3799 51.4346C77.8604 52.0205 78.4902 52.3135 79.2695 52.3135C79.7969 52.3135 80.2861 52.2402 80.7373 52.0938C81.1885 51.9473 81.5605 51.7891 81.8535 51.6191C82.1465 51.4434 82.293 51.3438 82.293 51.3203L82.9258 52.252C82.9258 52.2754 82.7295 52.4219 82.3369 52.6914C81.9502 52.9551 81.4697 53.1982 80.8955 53.4209C80.3271 53.6377 79.7236 53.7461 79.085 53.7461C77.667 53.7461 76.5918 53.3184 75.8594 52.4629C75.1328 51.6074 74.7695 50.418 74.7695 48.8945C74.7695 47.9453 74.9541 47.0869 75.3232 46.3193C75.6982 45.5518 76.2197 44.9482 76.8877 44.5088C77.5615 44.0693 78.3262 43.8496 79.1816 43.8496C81.7012 43.8496 82.9609 45.2588 82.9609 48.0771C82.9609 48.2705 82.9492 48.4639 82.9258 48.6572C82.9023 48.8506 82.8848 48.9766 82.873 49.0352L76.6592 49.0703ZM81.0537 47.7168C81.0537 46.9844 80.8955 46.3926 80.5791 45.9414C80.2686 45.4844 79.7705 45.2559 79.085 45.2559C78.3877 45.2559 77.834 45.4902 77.4238 45.959C77.0195 46.4277 76.7881 47.0137 76.7295 47.7168H81.0537ZM86.0547 52.2344C86.0547 52.2461 86.2041 52.2783 86.5029 52.3311C86.8018 52.3779 87.1562 52.4014 87.5664 52.4014C88.9199 52.4014 89.5996 51.9268 89.6055 50.9775C89.6055 50.5908 89.4385 50.3008 89.1045 50.1074C88.7764 49.9082 88.2637 49.7002 87.5664 49.4834C86.9277 49.2783 86.4092 49.082 86.0107 48.8945C85.6182 48.7012 85.2812 48.4258 85 48.0684C84.7188 47.7051 84.5781 47.2363 84.5781 46.6621C84.5781 45.7598 84.8828 45.0654 85.4922 44.5791C86.1074 44.0928 86.9014 43.8496 87.874 43.8496C88.2959 43.8496 88.7324 43.8906 89.1836 43.9727C89.6406 44.0488 90.0273 44.1309 90.3438 44.2188C90.666 44.3066 90.8682 44.3652 90.9502 44.3945L90.8975 46.8203H89.7285L89.4385 45.4141C89.4033 45.4023 89.3242 45.3789 89.2012 45.3438C89.084 45.3086 88.917 45.2764 88.7002 45.2471C88.4834 45.2178 88.2432 45.2031 87.9795 45.2031C86.9131 45.2031 86.3799 45.6045 86.3799 46.4072C86.3799 46.7939 86.5498 47.0928 86.8896 47.3037C87.2354 47.5088 87.7539 47.7256 88.4453 47.9541C89.0664 48.1709 89.5762 48.373 89.9746 48.5605C90.373 48.7422 90.71 49.0088 90.9854 49.3604C91.2607 49.7061 91.3984 50.1426 91.3984 50.6699C91.3984 51.666 91.0234 52.4277 90.2734 52.9551C89.5234 53.4824 88.5801 53.7461 87.4434 53.7461C86.9512 53.7461 86.4941 53.7168 86.0723 53.6582C85.6504 53.5996 85.3135 53.541 85.0615 53.4824C84.8096 53.4238 84.6543 53.3799 84.5957 53.3506V50.6875H85.8613L86.0547 52.2344ZM98.7812 45.4668H96.1709V51.25C96.1709 51.9824 96.4697 52.3486 97.0674 52.3486C97.4541 52.3486 97.9229 52.1992 98.4736 51.9004L98.957 52.8496C98.1426 53.4473 97.3018 53.7461 96.4346 53.7461C95.8252 53.7461 95.3271 53.5469 94.9404 53.1484C94.5596 52.7441 94.3691 52.0762 94.3691 51.1445V45.4668H92.5674V44.2979L94.3691 44.1221V41.8545L96.1709 41.4941V44.1221H98.7812V45.4668ZM101.594 52.2344C101.594 52.2461 101.743 52.2783 102.042 52.3311C102.341 52.3779 102.695 52.4014 103.105 52.4014C104.459 52.4014 105.139 51.9268 105.145 50.9775C105.145 50.5908 104.978 50.3008 104.644 50.1074C104.315 49.9082 103.803 49.7002 103.105 49.4834C102.467 49.2783 101.948 49.082 101.55 48.8945C101.157 48.7012 100.82 48.4258 100.539 48.0684C100.258 47.7051 100.117 47.2363 100.117 46.6621C100.117 45.7598 100.422 45.0654 101.031 44.5791C101.646 44.0928 102.44 43.8496 103.413 43.8496C103.835 43.8496 104.271 43.8906 104.723 43.9727C105.18 44.0488 105.566 44.1309 105.883 44.2188C106.205 44.3066 106.407 44.3652 106.489 44.3945L106.437 46.8203H105.268L104.978 45.4141C104.942 45.4023 104.863 45.3789 104.74 45.3438C104.623 45.3086 104.456 45.2764 104.239 45.2471C104.022 45.2178 103.782 45.2031 103.519 45.2031C102.452 45.2031 101.919 45.6045 101.919 46.4072C101.919 46.7939 102.089 47.0928 102.429 47.3037C102.774 47.5088 103.293 47.7256 103.984 47.9541C104.605 48.1709 105.115 48.373 105.514 48.5605C105.912 48.7422 106.249 49.0088 106.524 49.3604C106.8 49.7061 106.938 50.1426 106.938 50.6699C106.938 51.666 106.562 52.4277 105.812 52.9551C105.062 53.4824 104.119 53.7461 102.982 53.7461C102.49 53.7461 102.033 53.7168 101.611 53.6582C101.189 53.5996 100.853 53.541 100.601 53.4824C100.349 53.4238 100.193 53.3799 100.135 53.3506V50.6875H101.4L101.594 52.2344Z" fill="black"/>
</svg>
