<svg width="101" height="106" viewBox="0 0 101 106" fill="none" xmlns="http://www.w3.org/2000/svg">
<path d="M20.8057 30.9485C20.8057 20.9197 37.2028 8.68004 61.3701 13.7867C75.884 16.8535 93.3351 28.2311 94.7081 38.8886C96.4244 52.2105 70.0955 71.4184 62.7856 88.315C55.4758 105.212 38.9814 100.116 30.5178 70.9554C20.112 35.1028 20.8057 37.6404 20.8057 30.9485Z" fill="white" fill-opacity="0.4"/>
<path d="M32.764 41.392V42.616H39.964V41.392H32.764ZM35.212 45.028V49.096H36.688V45.028H35.212ZM39.37 41.392V42.256C39.37 43.3 39.37 44.776 38.956 46.918L40.414 47.08C40.846 44.938 40.846 43.318 40.846 42.256V41.392H39.37ZM43.06 40.132V52.39H44.554V40.132H43.06ZM43.87 45.424V46.666H46.876V45.424H43.87ZM34.276 54.82V56.044H45.076V54.82H34.276ZM34.276 51.256V55.198H35.752V51.256H34.276ZM31.936 49.798C34.798 49.798 38.686 49.726 42.07 49.132L41.962 48.052C38.668 48.502 34.672 48.574 31.774 48.574L31.936 49.798ZM60.2846 40.15V49.384H61.7966V40.15H60.2846ZM51.2846 50.32V56.188H61.7966V50.32H51.2846ZM60.3206 51.508V54.982H52.7426V51.508H60.3206ZM52.6886 40.762V42.346C52.6886 44.722 51.0146 46.918 48.5666 47.8L49.3046 48.988C52.0586 47.962 53.9306 45.37 53.9306 42.346V40.762H52.6886ZM52.9586 40.762V42.346C52.9586 45.298 54.8306 47.728 57.5486 48.664L58.2866 47.494C55.8746 46.684 54.1826 44.65 54.1826 42.346V40.762H52.9586ZM68.9952 41.536V44.452C68.9952 47.422 67.1412 50.554 64.7832 51.742L65.7012 52.93C68.2752 51.562 70.2192 48.052 70.2192 44.452V41.536H68.9952ZM69.2652 41.536V44.452C69.2652 47.944 71.1552 51.274 73.6752 52.624L74.5932 51.436C72.2892 50.284 70.4712 47.314 70.4712 44.452V41.536H69.2652ZM76.0152 40.132V56.404H77.5272V40.132H76.0152ZM77.1672 46.72V47.98H80.1912V46.72H77.1672Z" fill="black"/>
</svg>
