<svg width="725" height="736" viewBox="0 0 725 736" fill="none" xmlns="http://www.w3.org/2000/svg">
<path d="M49.3769 270.897C36.5776 271.414 26.2883 274.814 19.8599 277.457C17.1583 288.452 13.2974 305.537 10.0209 326.635C0.977109 384.824 -13.0868 475.259 26.4224 556.126C49.8559 604.097 83.6073 631.248 108.411 651.206C247.862 763.39 422.559 733.127 439.66 729.89C475.375 723.129 533.758 707.097 597.084 664.317C568.659 631.535 540.234 598.744 511.809 565.962C523.89 572.541 541.537 583.124 561.004 598.744C583.269 616.614 590.243 626.909 603.637 628.25C612.422 629.131 630.116 626.775 656.108 592.184C724.099 501.701 724.981 385.638 724.981 385.638C725.239 351.343 722.011 196.772 603.637 93.8484C575.499 69.389 548.013 54.0563 528.201 44.6709C515.756 53.8169 499.604 66.7745 482.283 84.0129C476.898 89.3664 464.655 101.625 452.766 116.795C439.698 133.468 421.103 161.28 406.847 202.039C409.97 148.983 423.718 118.595 436.364 100.409C454.624 74.1487 457.278 61.0475 462.605 34.8355C463.668 29.5873 464.166 25.8427 462.605 21.7246C459.683 14.0248 449.393 4.46703 380.616 2.05365C326.746 0.157418 299.461 -0.532121 282.226 11.8891C259.713 28.1125 248.322 57.0922 242.871 54.5064C239.699 53.0029 244.566 43.6845 239.594 38.1108C231.307 28.8403 200.717 35.525 183.837 54.5064C176.009 63.2981 178.338 66.6404 170.721 74.1774C155.929 88.8014 142.277 81.0537 124.803 90.5731C106.945 100.294 111.563 113.625 82.1703 159.422C71.1338 176.612 71.5266 173.117 59.2159 192.203C36.4913 227.446 24.2285 246.983 29.6989 264.327C33.1574 275.283 42.2204 280.713 59.2159 290.558C124.381 328.282 156.973 347.12 157.606 346.296C163.239 338.893 112.387 268.369 49.3769 270.897Z" fill="#299034"/>
</svg>
