<svg width="405" height="430" viewBox="0 0 405 430" fill="none" xmlns="http://www.w3.org/2000/svg">
<path d="M27.5814 169.925C20.4313 170.214 14.6834 172.115 11.0923 173.593C9.58309 179.741 7.42629 189.295 5.59596 201.092C0.543814 233.631 -7.3127 284.2 14.7583 329.419C27.8489 356.244 46.7035 371.426 60.5595 382.586C138.461 445.317 236.052 428.394 245.605 426.584C265.557 422.804 298.171 413.839 333.547 389.917C317.668 371.586 301.789 353.25 285.91 334.919C292.658 338.598 302.517 344.516 313.392 353.25C325.829 363.243 329.725 369 337.207 369.749C342.115 370.242 352 368.925 366.519 349.582C404.501 298.986 404.994 234.086 404.994 234.086C405.138 214.909 403.335 128.476 337.207 70.923C321.489 57.2458 306.134 48.6721 295.067 43.424C288.115 48.5382 279.092 55.7838 269.415 65.4232C266.408 68.4168 259.568 75.2715 252.926 83.7541C245.626 93.0775 235.238 108.629 227.275 131.421C229.02 101.753 236.7 84.7609 243.764 74.5913C253.965 59.9073 255.447 52.5814 258.423 37.9242C259.017 34.9895 259.295 32.8956 258.423 30.5929C256.79 26.2873 251.042 20.9428 212.622 19.5933C182.528 18.5329 167.286 18.1474 157.658 25.0931C145.081 34.1648 138.718 50.3697 135.673 48.9238C133.901 48.083 136.62 42.8724 133.842 39.7557C129.213 34.5718 112.125 38.3098 102.695 48.9238C98.3221 53.8399 99.6226 55.7089 95.3679 59.9234C87.1046 68.1008 79.4782 63.7684 69.7165 69.0915C59.7406 74.5271 62.3202 81.9815 45.9007 107.59C39.7354 117.203 39.9548 115.248 33.0777 125.921C20.3831 145.628 13.5328 156.553 16.5887 166.251C18.5207 172.378 23.5835 175.414 33.0777 180.919C69.481 202.013 87.688 212.547 88.0412 212.086C91.1881 207.947 62.7805 168.511 27.5814 169.925Z" fill="#299034"/>
<path d="M104.875 80.1562L110.312 78.875V44.3125L104.875 43.0312V39.5312L122.469 39.1875V43.0312L117.031 44.3125V78.875L122.469 80.1562V84H104.875V80.1562Z" fill="black"/>
</svg>
