<svg width="450" height="376" viewBox="0 0 450 376" fill="none" xmlns="http://www.w3.org/2000/svg">
<path d="M43.2067 229.246C-9.96387 191.303 -18.6762 78.8251 43.2067 34.8492C71.2252 14.9384 101.245 15.4407 128.704 13.9429C163.028 12.0707 275.36 27.3604 301.883 61.6842C328.406 96.0079 315.301 59.8119 382.076 154.982C448.851 250.153 334.335 229.247 271.616 339.707C208.897 450.167 109.67 276.676 43.2067 229.246Z" fill="white" fill-opacity="0.4"/>
<path d="M66.7891 36.1672C87.979 24.2346 96.9539 29.4792 111.544 31.2506C126.134 33.0219 132.955 28.1359 137.287 41.7214C139.183 47.6647 130.364 45.7408 114.13 50.2619C101.18 53.8681 86.7045 53.4934 64.6126 76.1492C42.5208 98.805 51.6314 181.293 35.1293 142.505C22.5973 113.048 25.0393 108.693 32.4118 83.9308C38.8135 62.4292 43.7048 49.1667 66.7891 36.1672Z" fill="white" fill-opacity="0.4"/>
<path d="M199.775 356.566C188.48 354.029 146.99 321.656 147.738 316.304C148.487 310.953 170.517 311.936 187.036 329.814C203.555 347.693 187.991 311.717 203.28 329.814C218.57 347.911 200.95 346.3 217.066 351.747C233.181 357.195 260.304 329.022 250.455 347.911C240.605 366.801 235.896 356.012 224.978 361.297C214.061 366.582 213.895 359.738 199.775 356.566Z" fill="white" fill-opacity="0.4"/>
<path d="M362.97 232.307C341.29 236.424 324.602 267.514 320.293 263.571C315.984 259.629 334.646 229.248 331.694 225.919C328.741 222.591 316.19 213.861 341.29 212.789C366.389 211.717 354.55 224.954 368.906 215.325C383.263 205.696 374.273 166.202 385.225 185.944C396.176 205.686 383.816 202.764 382.059 214.885C380.302 227.005 377.325 229.58 362.97 232.307Z" fill="white" fill-opacity="0.4"/>
<path d="M398.25 46.875L396.312 51.6875L386.406 71.8438L381.281 72.1562L371.375 51.375L369.75 46.875V78.875L375.844 80.1562V84H358.562V80.1562L364 78.875V44.3125L358.562 43.0312V39.5312L372.969 39.1875L384.531 64.8125L396.625 39.5312L410.094 39.1875V43.0312L404.625 44.3125V78.875L410.094 80.1562V84H392.156V80.1562L398.25 78.875V46.875ZM431.5 76.9688L438.531 54.875L434.062 53.9062V50.4062L449.219 50.0938V53.9062L445.062 54.5625L436 79.9062L435.406 81.4375C433.99 85.2292 432.667 88.3333 431.438 90.75C430.208 93.1667 428.542 95.2083 426.438 96.875C424.354 98.5417 421.781 99.375 418.719 99.375C418.031 99.375 417.24 99.3229 416.344 99.2188C415.448 99.1354 414.865 99.0729 414.594 99.0312L415.188 94.5625H418.375C420.458 94.5625 422.281 93.6875 423.844 91.9375C425.406 90.1875 426.979 87.5833 428.562 84.125L417.094 54.875L413.25 53.9062V50.4062L428.312 50.0938V53.9062L423.812 54.5625L431.5 76.9688Z" fill="black"/>
</svg>
