<svg width="403" height="367" viewBox="0 0 403 367" fill="none" xmlns="http://www.w3.org/2000/svg">
<path d="M43.408 219.676C-9.76258 181.733 -18.4749 69.2547 43.408 25.2789C71.4265 5.36813 101.446 5.87037 128.905 4.3726C163.229 2.5004 275.561 17.7901 302.084 52.1138C328.607 86.4376 315.502 50.2416 382.277 145.412C449.052 240.582 334.536 219.676 271.817 330.136C209.098 440.596 109.871 267.105 43.408 219.676Z" fill="white" fill-opacity="0.4"/>
<path d="M66.9901 26.5969C88.18 14.6643 97.155 19.9089 111.745 21.6803C126.335 23.4516 133.156 18.5656 137.488 32.1511C139.384 38.0944 130.565 36.1705 114.331 40.6916C101.381 44.2978 86.9056 43.9231 64.8137 66.5789C42.7218 89.2347 51.8325 171.723 35.3303 132.934C22.7983 103.478 25.2403 99.1227 32.6128 74.3605C39.0146 52.8589 43.9058 39.5964 66.9901 26.5969Z" fill="white" fill-opacity="0.4"/>
<path d="M199.977 346.997C188.682 344.46 147.192 312.086 147.94 306.734C148.688 301.383 170.719 302.366 187.238 320.244C203.757 338.123 188.193 302.147 203.482 320.244C218.772 338.341 201.152 336.73 217.268 342.178C233.383 347.625 260.506 319.452 250.656 338.341C240.807 357.231 236.097 346.442 225.18 351.727C214.263 357.012 214.096 350.168 199.977 346.997Z" fill="white" fill-opacity="0.4"/>
<path d="M363.172 222.736C341.491 226.854 324.803 257.943 320.494 254.001C316.185 250.059 334.847 219.677 331.895 216.349C328.942 213.021 316.392 204.291 341.491 203.219C366.59 202.146 354.751 215.384 369.107 205.755C383.464 196.126 374.474 156.632 385.426 176.374C396.377 196.116 384.017 193.194 382.26 205.315C380.503 217.435 377.526 220.01 363.172 222.736Z" fill="white" fill-opacity="0.4"/>
</svg>
