<svg width="72" height="83" viewBox="0 0 72 83" fill="none" xmlns="http://www.w3.org/2000/svg">
<path d="M71.0952 69.7608C70.0967 93.7251 22.1624 80.166 8.6884 59.4637C4.00089 52.2615 7.31545 47.7936 1.82365 38.5574C-5.0411 27.0121 12.4327 32.9408 12.4327 14.5308C12.4327 -3.87922 30.5307 -4.81533 49.8768 18.5873C73.6628 47.3607 72.3434 39.8056 71.0952 69.7608Z" fill="white" fill-opacity="0.4"/>
<path d="M13.8496 39.7383C14.1895 39.416 14.6582 39.0938 15.2559 38.7715C15.8535 38.4434 16.4717 38.2793 17.1104 38.2793C18.3232 38.2793 19.1582 38.7949 19.6152 39.8262C19.9141 39.5273 20.3682 39.1963 20.9775 38.833C21.5928 38.4639 22.2549 38.2793 22.9639 38.2793C23.9248 38.2793 24.6279 38.5635 25.0732 39.1318C25.5244 39.6943 25.75 40.4912 25.75 41.5225V46.5586L27.1035 47.0068V48H22.7793V47.0068L23.9482 46.5586V41.6982C23.9482 41.0361 23.834 40.5557 23.6055 40.2568C23.377 39.958 22.9814 39.8086 22.4189 39.8086C21.9619 39.8086 21.5459 39.917 21.1709 40.1338C20.8018 40.3506 20.4971 40.585 20.2568 40.8369C20.0166 41.0889 19.8965 41.2266 19.8965 41.25V46.5586L21.0742 47.0068V48H16.9258V47.0068L18.1035 46.5586V41.6982C18.1035 41.0361 17.9893 40.5557 17.7607 40.2568C17.5322 39.958 17.1367 39.8086 16.5742 39.8086C16.1172 39.8086 15.7012 39.917 15.3262 40.1338C14.957 40.3506 14.6523 40.585 14.4121 40.8369C14.1719 41.0889 14.0518 41.2266 14.0518 41.25V46.5586L15.2207 47.0068V48H10.7207V47.0068L12.25 46.5586V39.8965L10.7207 39.5361V38.5518L13.6914 38.4639L13.8496 39.7383ZM32.957 38.2793C34.2871 38.2793 35.3242 38.71 36.0684 39.5713C36.8125 40.4268 37.1846 41.5869 37.1846 43.0518C37.1846 44.0596 36.9971 44.9531 36.6221 45.7324C36.2529 46.5117 35.7256 47.1152 35.04 47.543C34.3604 47.9648 33.5752 48.1758 32.6846 48.1758C31.3193 48.1758 30.2588 47.7656 29.5029 46.9453C28.7471 46.125 28.3691 44.918 28.3691 43.3242C28.3691 42.3164 28.5625 41.4316 28.9492 40.6699C29.3418 39.9023 29.8838 39.3135 30.5752 38.9033C31.2666 38.4873 32.0605 38.2793 32.957 38.2793ZM32.8691 39.7207C31.9785 39.7207 31.3193 40.0137 30.8916 40.5996C30.4697 41.1797 30.2588 42.0557 30.2588 43.2275C30.2588 45.5654 31.0996 46.7373 32.7812 46.7432C33.6602 46.7432 34.2988 46.4443 34.6973 45.8467C35.0957 45.2432 35.2949 44.3408 35.2949 43.1396C35.2949 40.8604 34.4863 39.7207 32.8691 39.7207ZM44.4883 39.8965H41.8779V45.6797C41.8779 46.4121 42.1768 46.7783 42.7744 46.7783C43.1611 46.7783 43.6299 46.6289 44.1807 46.3301L44.6641 47.2793C43.8496 47.877 43.0088 48.1758 42.1416 48.1758C41.5322 48.1758 41.0342 47.9766 40.6475 47.5781C40.2666 47.1738 40.0762 46.5059 40.0762 45.5742V39.8965H38.2744V38.7275L40.0762 38.5518V36.2842L41.8779 35.9238V38.5518H44.4883V39.8965ZM51.5898 39.8965H48.9795V45.6797C48.9795 46.4121 49.2783 46.7783 49.876 46.7783C50.2627 46.7783 50.7314 46.6289 51.2822 46.3301L51.7656 47.2793C50.9512 47.877 50.1104 48.1758 49.2432 48.1758C48.6338 48.1758 48.1357 47.9766 47.749 47.5781C47.3682 47.1738 47.1777 46.5059 47.1777 45.5742V39.8965H45.376V38.7275L47.1777 38.5518V36.2842L48.9795 35.9238V38.5518H51.5898V39.8965ZM57.4258 38.2793C58.7559 38.2793 59.793 38.71 60.5371 39.5713C61.2812 40.4268 61.6533 41.5869 61.6533 43.0518C61.6533 44.0596 61.4658 44.9531 61.0908 45.7324C60.7217 46.5117 60.1943 47.1152 59.5088 47.543C58.8291 47.9648 58.0439 48.1758 57.1533 48.1758C55.7881 48.1758 54.7275 47.7656 53.9717 46.9453C53.2158 46.125 52.8379 44.918 52.8379 43.3242C52.8379 42.3164 53.0312 41.4316 53.418 40.6699C53.8105 39.9023 54.3525 39.3135 55.0439 38.9033C55.7354 38.4873 56.5293 38.2793 57.4258 38.2793ZM57.3379 39.7207C56.4473 39.7207 55.7881 40.0137 55.3604 40.5996C54.9385 41.1797 54.7275 42.0557 54.7275 43.2275C54.7275 45.5654 55.5684 46.7373 57.25 46.7432C58.1289 46.7432 58.7676 46.4443 59.166 45.8467C59.5645 45.2432 59.7637 44.3408 59.7637 43.1396C59.7637 40.8604 58.9551 39.7207 57.3379 39.7207Z" fill="black"/>
</svg>
