<svg width="148" height="148" viewBox="0 0 148 148" fill="none" xmlns="http://www.w3.org/2000/svg">
<path d="M42.8095 84.0408C28.2638 60.7858 27.0914 54.9904 30.0161 38.4838C35.6165 6.87659 58.0472 26.4066 74.9804 22.4712C96.1469 17.5519 135.708 110.541 103.338 131.602C70.9685 152.663 60.9918 113.11 42.8095 84.0408Z" fill="white" fill-opacity="0.4"/>
<path d="M42.9001 75.074V76.316H57.6421V75.074H42.9001ZM44.1781 63.752V64.976H56.2561V63.752H44.1781ZM44.2141 70.628V71.852H56.2381V70.628H44.2141ZM46.7161 64.886V70.754H48.2101V64.886H46.7161ZM52.2601 64.886V70.754H53.7361V64.886H52.2601ZM59.4587 75.164V76.406H74.2007V75.164H59.4587ZM66.0467 71.672V75.686H67.5407V71.672H66.0467ZM61.2407 63.338V64.544H70.9067V67.064H61.2947V71.528H62.7707V68.27H72.3827V63.338H61.2407ZM61.2947 70.898V72.122H72.7607V70.898H61.2947ZM82.7313 66.326V67.55H85.7013V66.326H82.7313ZM85.1613 62.474V71.942H86.5653V62.474H85.1613ZM79.3833 64.274V65.606C79.3833 67.55 78.1593 69.638 76.0713 70.538L76.8453 71.69C79.2393 70.628 80.5533 68.126 80.5533 65.606V64.274H79.3833ZM79.6353 64.274V65.588C79.6353 67.946 80.8773 70.322 83.2353 71.312L83.9913 70.16C81.9753 69.314 80.8053 67.388 80.8053 65.588V64.274H79.6353ZM76.3773 63.446V64.67H83.6133V63.446H76.3773ZM88.2933 62.132V72.068H89.7153V62.132H88.2933ZM78.8073 72.788V74.012H88.2393V78.404H89.7153V72.788H78.8073ZM94.4659 70.898V72.104H105.644V70.898H94.4659ZM92.5759 75.074V76.316H107.318V75.074H92.5759ZM94.4659 63.518V71.276H95.9779V64.742H105.464V63.518H94.4659ZM95.4919 67.154V68.342H105.122V67.154H95.4919Z" fill="black"/>
</svg>
