<svg width="148" height="148" viewBox="0 0 148 148" fill="none" xmlns="http://www.w3.org/2000/svg">
<path d="M42.6689 83.6111C28.1231 60.3561 26.9507 54.5607 29.8755 38.0541C35.4758 6.4469 57.9066 25.977 74.8398 22.0415C96.0063 17.1222 135.567 110.111 103.198 131.172C70.8279 152.233 60.8511 112.68 42.6689 83.6111Z" fill="white" fill-opacity="0.4"/>
<path d="M45.5156 67.0361C46.3652 66.2451 47.2764 65.8496 48.249 65.8496C49.5205 65.8496 50.4814 66.2715 51.1318 67.1152C51.7881 67.9531 52.1162 69.0928 52.1162 70.5342C52.1162 72.1279 51.709 73.3965 50.8945 74.3398C50.0801 75.2773 48.8672 75.7461 47.2559 75.7461C46.7402 75.7461 46.2012 75.6641 45.6387 75.5V78.3564L47.5283 78.7168V79.71H42.3955V78.7168L43.8369 78.3564V67.4668L42.3076 67.1064V66.1221L45.3662 66.0342L45.5156 67.0361ZM45.6387 73.9531C45.6621 73.9766 45.7412 74.0146 45.876 74.0674C46.0166 74.1201 46.2275 74.1758 46.5088 74.2344C46.7959 74.2871 47.1357 74.3135 47.5283 74.3135C49.3271 74.3135 50.2266 73.1123 50.2266 70.71C50.2266 69.667 50.0303 68.8379 49.6377 68.2227C49.251 67.6016 48.668 67.291 47.8887 67.291C47.4082 67.291 46.998 67.3848 46.6582 67.5723C46.3242 67.7539 46.0693 67.9531 45.8936 68.1699C45.7236 68.3867 45.6387 68.5127 45.6387 68.5479V73.9531ZM56.7832 67.3438C57.123 66.9746 57.5244 66.6348 57.9873 66.3242C58.4561 66.0078 58.9629 65.8496 59.5078 65.8496C59.7715 65.8496 60.0205 65.8701 60.2549 65.9111C60.4951 65.9521 60.6914 65.9961 60.8438 66.043C60.9961 66.084 61.0898 66.1104 61.125 66.1221L61.0371 68.7324H59.8594L59.5957 67.3789C58.998 67.3789 58.4824 67.5225 58.0488 67.8096C57.6152 68.0967 57.2607 68.4219 56.9854 68.7852V74.1289L58.7871 74.5771V75.5703H53.6543V74.5771L55.1836 74.1289V67.4668L53.6543 67.1064V66.1221L56.625 66.0342L56.7832 67.3438ZM66.6094 65.8496C67.9395 65.8496 68.9766 66.2803 69.7207 67.1416C70.4648 67.9971 70.8369 69.1572 70.8369 70.6221C70.8369 71.6299 70.6494 72.5234 70.2744 73.3027C69.9053 74.082 69.3779 74.6855 68.6924 75.1133C68.0127 75.5352 67.2275 75.7461 66.3369 75.7461C64.9717 75.7461 63.9111 75.3359 63.1553 74.5156C62.3994 73.6953 62.0215 72.4883 62.0215 70.8945C62.0215 69.8867 62.2148 69.002 62.6016 68.2402C62.9941 67.4727 63.5361 66.8838 64.2275 66.4736C64.9189 66.0576 65.7129 65.8496 66.6094 65.8496ZM66.5215 67.291C65.6309 67.291 64.9717 67.584 64.5439 68.1699C64.1221 68.75 63.9111 69.626 63.9111 70.7979C63.9111 73.1357 64.752 74.3076 66.4336 74.3135C67.3125 74.3135 67.9512 74.0146 68.3496 73.417C68.748 72.8135 68.9473 71.9111 68.9473 70.71C68.9473 68.4307 68.1387 67.291 66.5215 67.291ZM73.0781 63.0635C73.0781 62.665 73.1924 62.3545 73.4209 62.1318C73.6494 61.9092 73.9248 61.7979 74.2471 61.7979C75.0264 61.7979 75.416 62.2197 75.416 63.0635C75.416 63.4502 75.2959 63.7578 75.0557 63.9863C74.8154 64.209 74.5459 64.3203 74.2471 64.3203C73.8896 64.3203 73.6055 64.209 73.3945 63.9863C73.1836 63.7637 73.0781 63.4561 73.0781 63.0635ZM75.3281 76.3789C75.3281 77.4746 75.0381 78.333 74.458 78.9541C73.8838 79.5811 73.0635 79.8945 71.9971 79.8945C71.8037 79.8945 71.5811 79.8799 71.3291 79.8506C71.0771 79.8271 70.916 79.8096 70.8457 79.7979L71.0127 78.541H71.9092C72.5068 78.541 72.9258 78.3857 73.166 78.0752C73.4062 77.7705 73.5264 77.3252 73.5264 76.7393V67.4668L71.9971 67.1064V66.1221L75.3281 66.0342V76.3789ZM79.3799 71.0703C79.3799 72.0547 79.6201 72.8428 80.1006 73.4346C80.5811 74.0205 81.2109 74.3135 81.9902 74.3135C82.5176 74.3135 83.0068 74.2402 83.458 74.0938C83.9092 73.9473 84.2812 73.7891 84.5742 73.6191C84.8672 73.4434 85.0137 73.3438 85.0137 73.3203L85.6465 74.252C85.6465 74.2754 85.4502 74.4219 85.0576 74.6914C84.6709 74.9551 84.1904 75.1982 83.6162 75.4209C83.0479 75.6377 82.4443 75.7461 81.8057 75.7461C80.3877 75.7461 79.3125 75.3184 78.5801 74.4629C77.8535 73.6074 77.4902 72.418 77.4902 70.8945C77.4902 69.9453 77.6748 69.0869 78.0439 68.3193C78.4189 67.5518 78.9404 66.9482 79.6084 66.5088C80.2822 66.0693 81.0469 65.8496 81.9023 65.8496C84.4219 65.8496 85.6816 67.2588 85.6816 70.0771C85.6816 70.2705 85.6699 70.4639 85.6465 70.6572C85.623 70.8506 85.6055 70.9766 85.5938 71.0352L79.3799 71.0703ZM83.7744 69.7168C83.7744 68.9844 83.6162 68.3926 83.2998 67.9414C82.9893 67.4844 82.4912 67.2559 81.8057 67.2559C81.1084 67.2559 80.5547 67.4902 80.1445 67.959C79.7402 68.4277 79.5088 69.0137 79.4502 69.7168H83.7744ZM93.5918 67.4668C93.5098 67.4434 93.3135 67.4082 93.0029 67.3613C92.6924 67.3145 92.3496 67.291 91.9746 67.291C91.1133 67.291 90.4482 67.5693 89.9795 68.126C89.5107 68.6826 89.2764 69.5146 89.2764 70.6221C89.2764 71.8232 89.5225 72.7402 90.0146 73.373C90.5068 74 91.1895 74.3135 92.0625 74.3135C92.5664 74.3135 93.0264 74.2314 93.4424 74.0674C93.8584 73.9033 94.1982 73.7305 94.4619 73.5488C94.7256 73.3613 94.8574 73.2559 94.8574 73.2324L95.4902 74.3135C95.4902 74.3369 95.3027 74.4746 94.9277 74.7266C94.5586 74.9785 94.1045 75.2129 93.5654 75.4297C93.0322 75.6406 92.4727 75.7461 91.8867 75.7461C90.4219 75.7461 89.3057 75.3125 88.5381 74.4453C87.7705 73.5781 87.3867 72.3623 87.3867 70.7979C87.3867 69.8369 87.5771 68.9814 87.958 68.2314C88.3447 67.4814 88.8896 66.8984 89.5928 66.4824C90.2959 66.0605 91.1191 65.8496 92.0625 65.8496C92.543 65.8496 93.0117 65.9053 93.4688 66.0166C93.9258 66.1221 94.2979 66.2334 94.585 66.3506C94.8721 66.4619 95.0537 66.5352 95.1299 66.5703L95.0332 68.9961H93.8643L93.5918 67.4668ZM102.416 67.4668H99.8057V73.25C99.8057 73.9824 100.104 74.3486 100.702 74.3486C101.089 74.3486 101.558 74.1992 102.108 73.9004L102.592 74.8496C101.777 75.4473 100.937 75.7461 100.069 75.7461C99.46 75.7461 98.9619 75.5469 98.5752 75.1484C98.1943 74.7441 98.0039 74.0762 98.0039 73.1445V67.4668H96.2021V66.2979L98.0039 66.1221V63.8545L99.8057 63.4941V66.1221H102.416V67.4668ZM105.229 74.2344C105.229 74.2461 105.378 74.2783 105.677 74.3311C105.976 74.3779 106.33 74.4014 106.74 74.4014C108.094 74.4014 108.773 73.9268 108.779 72.9775C108.779 72.5908 108.612 72.3008 108.278 72.1074C107.95 71.9082 107.438 71.7002 106.74 71.4834C106.102 71.2783 105.583 71.082 105.185 70.8945C104.792 70.7012 104.455 70.4258 104.174 70.0684C103.893 69.7051 103.752 69.2363 103.752 68.6621C103.752 67.7598 104.057 67.0654 104.666 66.5791C105.281 66.0928 106.075 65.8496 107.048 65.8496C107.47 65.8496 107.906 65.8906 108.357 65.9727C108.814 66.0488 109.201 66.1309 109.518 66.2188C109.84 66.3066 110.042 66.3652 110.124 66.3945L110.071 68.8203H108.902L108.612 67.4141C108.577 67.4023 108.498 67.3789 108.375 67.3438C108.258 67.3086 108.091 67.2764 107.874 67.2471C107.657 67.2178 107.417 67.2031 107.153 67.2031C106.087 67.2031 105.554 67.6045 105.554 68.4072C105.554 68.7939 105.724 69.0928 106.063 69.3037C106.409 69.5088 106.928 69.7256 107.619 69.9541C108.24 70.1709 108.75 70.373 109.148 70.5605C109.547 70.7422 109.884 71.0088 110.159 71.3604C110.435 71.7061 110.572 72.1426 110.572 72.6699C110.572 73.666 110.197 74.4277 109.447 74.9551C108.697 75.4824 107.754 75.7461 106.617 75.7461C106.125 75.7461 105.668 75.7168 105.246 75.6582C104.824 75.5996 104.487 75.541 104.235 75.4824C103.983 75.4238 103.828 75.3799 103.77 75.3506V72.6875H105.035L105.229 74.2344Z" fill="black"/>
</svg>
