<svg width="138" height="131" viewBox="0 0 138 131" fill="none" xmlns="http://www.w3.org/2000/svg">
<path d="M77.1444 98.9684C30.734 107.542 32.8354 97.2825 28.0354 75.2538C26.3655 67.5901 33.7083 44.5958 32.0769 35.3134C30.0376 23.7103 60.4721 8.47842 77.1444 22.6433C84.9637 29.2867 102.25 32.945 111.716 62.1679C123.354 98.0974 92.9491 96.0486 77.1444 98.9684Z" fill="white" fill-opacity="0.4"/>
<path d="M100.454 62.2365C104.84 70.6059 104.416 77.0775 98.7688 86.8286C91.921 98.6536 53.8158 96.4997 63.8383 89.3831C73.2267 82.7167 81.8402 85.0076 87.8838 75.1175C92.0896 68.2349 89.7403 54.9165 93.1624 50.9893C95.905 47.842 96.0686 53.8671 100.454 62.2365Z" fill="white" fill-opacity="0.4"/>
<path d="M21.6562 61.4658C22.5059 60.6748 23.417 60.2793 24.3896 60.2793C25.6611 60.2793 26.6221 60.7012 27.2725 61.5449C27.9287 62.3828 28.2568 63.5225 28.2568 64.9639C28.2568 66.5576 27.8496 67.8262 27.0352 68.7695C26.2207 69.707 25.0078 70.1758 23.3965 70.1758C22.8809 70.1758 22.3418 70.0938 21.7793 69.9297V72.7861L23.6689 73.1465V74.1396H18.5361V73.1465L19.9775 72.7861V61.8965L18.4482 61.5361V60.5518L21.5068 60.4639L21.6562 61.4658ZM21.7793 68.3828C21.8027 68.4062 21.8818 68.4443 22.0166 68.4971C22.1572 68.5498 22.3682 68.6055 22.6494 68.6641C22.9365 68.7168 23.2764 68.7432 23.6689 68.7432C25.4678 68.7432 26.3672 67.542 26.3672 65.1396C26.3672 64.0967 26.1709 63.2676 25.7783 62.6523C25.3916 62.0312 24.8086 61.7207 24.0293 61.7207C23.5488 61.7207 23.1387 61.8145 22.7988 62.002C22.4648 62.1836 22.21 62.3828 22.0342 62.5996C21.8643 62.8164 21.7793 62.9424 21.7793 62.9775V68.3828ZM32.9238 61.7734C33.2637 61.4043 33.665 61.0645 34.1279 60.7539C34.5967 60.4375 35.1035 60.2793 35.6484 60.2793C35.9121 60.2793 36.1611 60.2998 36.3955 60.3408C36.6357 60.3818 36.832 60.4258 36.9844 60.4727C37.1367 60.5137 37.2305 60.54 37.2656 60.5518L37.1777 63.1621H36L35.7363 61.8086C35.1387 61.8086 34.623 61.9521 34.1895 62.2393C33.7559 62.5264 33.4014 62.8516 33.126 63.2148V68.5586L34.9277 69.0068V70H29.7949V69.0068L31.3242 68.5586V61.8965L29.7949 61.5361V60.5518L32.7656 60.4639L32.9238 61.7734ZM42.75 60.2793C44.0801 60.2793 45.1172 60.71 45.8613 61.5713C46.6055 62.4268 46.9775 63.5869 46.9775 65.0518C46.9775 66.0596 46.79 66.9531 46.415 67.7324C46.0459 68.5117 45.5186 69.1152 44.833 69.543C44.1533 69.9648 43.3682 70.1758 42.4775 70.1758C41.1123 70.1758 40.0518 69.7656 39.2959 68.9453C38.54 68.125 38.1621 66.918 38.1621 65.3242C38.1621 64.3164 38.3555 63.4316 38.7422 62.6699C39.1348 61.9023 39.6768 61.3135 40.3682 60.9033C41.0596 60.4873 41.8535 60.2793 42.75 60.2793ZM42.6621 61.7207C41.7715 61.7207 41.1123 62.0137 40.6846 62.5996C40.2627 63.1797 40.0518 64.0557 40.0518 65.2275C40.0518 67.5654 40.8926 68.7373 42.5742 68.7432C43.4531 68.7432 44.0918 68.4443 44.4902 67.8467C44.8887 67.2432 45.0879 66.3408 45.0879 65.1396C45.0879 62.8604 44.2793 61.7207 42.6621 61.7207ZM49.9922 68.6641C49.9922 68.6758 50.1416 68.708 50.4404 68.7607C50.7393 68.8076 51.0938 68.8311 51.5039 68.8311C52.8574 68.8311 53.5371 68.3564 53.543 67.4072C53.543 67.0205 53.376 66.7305 53.042 66.5371C52.7139 66.3379 52.2012 66.1299 51.5039 65.9131C50.8652 65.708 50.3467 65.5117 49.9482 65.3242C49.5557 65.1309 49.2188 64.8555 48.9375 64.498C48.6562 64.1348 48.5156 63.666 48.5156 63.0918C48.5156 62.1895 48.8203 61.4951 49.4297 61.0088C50.0449 60.5225 50.8389 60.2793 51.8115 60.2793C52.2334 60.2793 52.6699 60.3203 53.1211 60.4023C53.5781 60.4785 53.9648 60.5605 54.2812 60.6484C54.6035 60.7363 54.8057 60.7949 54.8877 60.8242L54.835 63.25H53.666L53.376 61.8438C53.3408 61.832 53.2617 61.8086 53.1387 61.7734C53.0215 61.7383 52.8545 61.7061 52.6377 61.6768C52.4209 61.6475 52.1807 61.6328 51.917 61.6328C50.8506 61.6328 50.3174 62.0342 50.3174 62.8369C50.3174 63.2236 50.4873 63.5225 50.8271 63.7334C51.1729 63.9385 51.6914 64.1553 52.3828 64.3838C53.0039 64.6006 53.5137 64.8027 53.9121 64.9902C54.3105 65.1719 54.6475 65.4385 54.9229 65.79C55.1982 66.1357 55.3359 66.5723 55.3359 67.0996C55.3359 68.0957 54.9609 68.8574 54.2109 69.3848C53.4609 69.9121 52.5176 70.1758 51.3809 70.1758C50.8887 70.1758 50.4316 70.1465 50.0098 70.0879C49.5879 70.0293 49.251 69.9707 48.999 69.9121C48.7471 69.8535 48.5918 69.8096 48.5332 69.7803V67.1172H49.7988L49.9922 68.6641ZM61.6465 61C61.7402 60.9648 61.9746 60.8916 62.3496 60.7803C62.7305 60.6631 63.1787 60.5518 63.6943 60.4463C64.21 60.335 64.6963 60.2793 65.1533 60.2793C66.2432 60.2793 67.0693 60.4961 67.6318 60.9297C68.2002 61.3633 68.4844 62.0781 68.4844 63.0742V68.5586L69.9258 68.9189V69.9121L67.1309 70L66.7529 68.7432C66.3662 69.1299 65.918 69.4668 65.4082 69.7539C64.9043 70.0352 64.3682 70.1758 63.7998 70.1758C62.9502 70.1758 62.2881 69.9414 61.8135 69.4727C61.3389 68.998 61.1016 68.333 61.1016 67.4775C61.1016 66.4814 61.459 65.7695 62.1738 65.3418C62.8887 64.9082 63.9111 64.6914 65.2412 64.6914H66.6826V63.25C66.6826 62.7227 66.5361 62.3213 66.2432 62.0459C65.9502 61.7705 65.5254 61.6328 64.9688 61.6328C64.6465 61.6328 64.3506 61.6533 64.0811 61.6943C63.8115 61.7354 63.5977 61.7764 63.4395 61.8174C63.2871 61.8584 63.1934 61.8848 63.1582 61.8965L62.9033 63.25H61.7344L61.6465 61ZM65.4258 65.8604C64.5352 65.8604 63.8965 65.9805 63.5098 66.2207C63.1289 66.4609 62.9385 66.8506 62.9385 67.3896C62.9385 67.7998 63.0557 68.1279 63.29 68.374C63.5244 68.6201 63.8467 68.7432 64.2568 68.7432C64.6553 68.7432 65.0332 68.6348 65.3906 68.418C65.748 68.2012 66.0527 67.9668 66.3047 67.7148C66.5566 67.4629 66.6826 67.3252 66.6826 67.3018V65.8604H65.4258ZM74.3203 61.7383C74.6953 61.416 75.1846 61.0938 75.7881 60.7715C76.3975 60.4434 77.0244 60.2793 77.6689 60.2793C78.6299 60.2793 79.3506 60.5664 79.8311 61.1406C80.3115 61.709 80.5518 62.5029 80.5518 63.5225V68.5586L81.8965 69.0068V70H77.5811V69.0068L78.75 68.5586V63.6982C78.75 63.0479 78.624 62.5703 78.3721 62.2656C78.1201 61.9609 77.707 61.8086 77.1328 61.8086C76.6758 61.8086 76.2539 61.917 75.8672 62.1338C75.4863 62.3506 75.167 62.585 74.9092 62.8369C74.6514 63.0889 74.5225 63.2266 74.5225 63.25V68.5586L75.6914 69.0068V70H71.1914V69.0068L72.7207 68.5586V61.8965L71.1914 61.5361V60.5518L74.1621 60.4639L74.3203 61.7383ZM93.0586 69.9121L90 70L89.8594 68.9717C89.0566 69.7744 88.1133 70.1758 87.0293 70.1758C85.7695 70.1758 84.8232 69.7598 84.1904 68.9277C83.5635 68.0957 83.25 66.9531 83.25 65.5C83.25 63.9062 83.6514 62.6377 84.4541 61.6943C85.2627 60.751 86.4521 60.2793 88.0225 60.2793C88.6084 60.2793 89.1768 60.376 89.7275 60.5693V57.5811L88.1982 57.2207V56.2275L91.5293 56.1396V68.5586L93.0586 68.9189V69.9121ZM89.7275 62.0811C89.6924 62.0576 89.6016 62.0195 89.4551 61.9668C89.3145 61.9082 89.1035 61.8525 88.8223 61.7998C88.541 61.7471 88.2129 61.7207 87.8379 61.7207C86.0391 61.7207 85.1396 62.9219 85.1396 65.3242C85.1396 66.3789 85.3213 67.2139 85.6846 67.8291C86.0537 68.4385 86.6221 68.7432 87.3896 68.7432C87.8467 68.7432 88.248 68.6436 88.5938 68.4443C88.9453 68.2451 89.2207 68.0283 89.4199 67.7939C89.625 67.5596 89.7275 67.4248 89.7275 67.3896V62.0811ZM104.59 61.8965C104.508 61.873 104.312 61.8379 104.001 61.791C103.69 61.7441 103.348 61.7207 102.973 61.7207C102.111 61.7207 101.446 61.999 100.978 62.5557C100.509 63.1123 100.274 63.9443 100.274 65.0518C100.274 66.2529 100.521 67.1699 101.013 67.8027C101.505 68.4297 102.188 68.7432 103.061 68.7432C103.564 68.7432 104.024 68.6611 104.44 68.4971C104.856 68.333 105.196 68.1602 105.46 67.9785C105.724 67.791 105.855 67.6855 105.855 67.6621L106.488 68.7432C106.488 68.7666 106.301 68.9043 105.926 69.1562C105.557 69.4082 105.103 69.6426 104.563 69.8594C104.03 70.0703 103.471 70.1758 102.885 70.1758C101.42 70.1758 100.304 69.7422 99.5361 68.875C98.7686 68.0078 98.3848 66.792 98.3848 65.2275C98.3848 64.2666 98.5752 63.4111 98.9561 62.6611C99.3428 61.9111 99.8877 61.3281 100.591 60.9121C101.294 60.4902 102.117 60.2793 103.061 60.2793C103.541 60.2793 104.01 60.335 104.467 60.4463C104.924 60.5518 105.296 60.6631 105.583 60.7803C105.87 60.8916 106.052 60.9648 106.128 61L106.031 63.4258H104.862L104.59 61.8965ZM112.148 60.2793C113.479 60.2793 114.516 60.71 115.26 61.5713C116.004 62.4268 116.376 63.5869 116.376 65.0518C116.376 66.0596 116.188 66.9531 115.813 67.7324C115.444 68.5117 114.917 69.1152 114.231 69.543C113.552 69.9648 112.767 70.1758 111.876 70.1758C110.511 70.1758 109.45 69.7656 108.694 68.9453C107.938 68.125 107.561 66.918 107.561 65.3242C107.561 64.3164 107.754 63.4316 108.141 62.6699C108.533 61.9023 109.075 61.3135 109.767 60.9033C110.458 60.4873 111.252 60.2793 112.148 60.2793ZM112.061 61.7207C111.17 61.7207 110.511 62.0137 110.083 62.5996C109.661 63.1797 109.45 64.0557 109.45 65.2275C109.45 67.5654 110.291 68.7373 111.973 68.7432C112.852 68.7432 113.49 68.4443 113.889 67.8467C114.287 67.2432 114.486 66.3408 114.486 65.1396C114.486 62.8604 113.678 61.7207 112.061 61.7207ZM120.955 61.7383C121.33 61.416 121.819 61.0938 122.423 60.7715C123.032 60.4434 123.659 60.2793 124.304 60.2793C125.265 60.2793 125.985 60.5664 126.466 61.1406C126.946 61.709 127.187 62.5029 127.187 63.5225V68.5586L128.531 69.0068V70H124.216V69.0068L125.385 68.5586V63.6982C125.385 63.0479 125.259 62.5703 125.007 62.2656C124.755 61.9609 124.342 61.8086 123.768 61.8086C123.311 61.8086 122.889 61.917 122.502 62.1338C122.121 62.3506 121.802 62.585 121.544 62.8369C121.286 63.0889 121.157 63.2266 121.157 63.25V68.5586L122.326 69.0068V70H117.826V69.0068L119.355 68.5586V61.8965L117.826 61.5361V60.5518L120.797 60.4639L120.955 61.7383ZM131.361 68.6641C131.361 68.6758 131.511 68.708 131.81 68.7607C132.108 68.8076 132.463 68.8311 132.873 68.8311C134.227 68.8311 134.906 68.3564 134.912 67.4072C134.912 67.0205 134.745 66.7305 134.411 66.5371C134.083 66.3379 133.57 66.1299 132.873 65.9131C132.234 65.708 131.716 65.5117 131.317 65.3242C130.925 65.1309 130.588 64.8555 130.307 64.498C130.025 64.1348 129.885 63.666 129.885 63.0918C129.885 62.1895 130.189 61.4951 130.799 61.0088C131.414 60.5225 132.208 60.2793 133.181 60.2793C133.603 60.2793 134.039 60.3203 134.49 60.4023C134.947 60.4785 135.334 60.5605 135.65 60.6484C135.973 60.7363 136.175 60.7949 136.257 60.8242L136.204 63.25H135.035L134.745 61.8438C134.71 61.832 134.631 61.8086 134.508 61.7734C134.391 61.7383 134.224 61.7061 134.007 61.6768C133.79 61.6475 133.55 61.6328 133.286 61.6328C132.22 61.6328 131.687 62.0342 131.687 62.8369C131.687 63.2236 131.856 63.5225 132.196 63.7334C132.542 63.9385 133.061 64.1553 133.752 64.3838C134.373 64.6006 134.883 64.8027 135.281 64.9902C135.68 65.1719 136.017 65.4385 136.292 65.79C136.567 66.1357 136.705 66.5723 136.705 67.0996C136.705 68.0957 136.33 68.8574 135.58 69.3848C134.83 69.9121 133.887 70.1758 132.75 70.1758C132.258 70.1758 131.801 70.1465 131.379 70.0879C130.957 70.0293 130.62 69.9707 130.368 69.9121C130.116 69.8535 129.961 69.8096 129.902 69.7803V67.1172H131.168L131.361 68.6641Z" fill="black"/>
</svg>
