<svg width="130" height="130" viewBox="0 0 130 130" fill="none" xmlns="http://www.w3.org/2000/svg">
<path d="M77.2849 98.398C30.8745 106.972 32.9759 96.7122 28.1759 74.6834C26.506 67.0198 33.8488 44.0255 32.2174 34.7431C30.1781 23.14 60.6126 7.90811 77.2849 22.073C85.1043 28.7164 102.391 32.3747 111.857 61.5976C123.495 97.5271 93.0896 95.4783 77.2849 98.398Z" fill="white" fill-opacity="0.4"/>
<path d="M100.595 61.6662C104.981 70.0356 104.556 76.5071 98.9095 86.2583C92.0617 98.0833 53.9565 95.9294 63.9791 88.8128C73.3674 82.1464 81.9809 84.4373 88.0245 74.5472C92.2303 67.6646 89.881 54.3462 93.3032 50.419C96.0458 47.2717 96.2093 53.2968 100.595 61.6662Z" fill="white" fill-opacity="0.4"/>
</svg>
